/* XPM */
static char * mesa_xpm[] = {
"128 128 55 1",
" 	c None",
".	c #EDEDED",
"+	c #F7F7F7",
"@	c #F0F0F0",
"#	c #F2F2F2",
"$	c #E7E7E7",
"%	c #EFEFEF",
"&	c #EBEBEB",
"*	c #F4F4F4",
"=	c #ECECEC",
"-	c #E6E6E6",
";	c #FDFDFD",
">	c #E9E9E9",
",	c #E2E2E2",
"'	c #E4E4E4",
")	c #DCDCDC",
"!	c #EAEAEA",
"~	c #F6F6F6",
"{	c #F5F5F5",
"]	c #EEEEEE",
"^	c #F1F1F1",
"/	c #DADADA",
"(	c #E1E1E1",
"_	c #E5E5E5",
":	c #E3E3E3",
"<	c #E8E8E8",
"[	c #F3F3F3",
"}	c #FBFBFB",
"|	c #D9D9D9",
"1	c #F8F8F8",
"2	c #FEFEFE",
"3	c #F9F9F9",
"4	c #E0E0E0",
"5	c #DFDFDF",
"6	c #DDDDDD",
"7	c #FFFFFF",
"8	c #FCFCFC",
"9	c #FAFAFA",
"0	c #DEDEDE",
"a	c #DBDBDB",
"b	c #D8D8D8",
"c	c #D5D5D5",
"d	c #D7D7D7",
"e	c #D6D6D6",
"f	c #D4D4D4",
"g	c #D3D3D3",
"h	c #D1D1D1",
"i	c #D0D0D0",
"j	c #C6C6C6",
"k	c #D2D2D2",
"l	c #CDCDCD",
"m	c #CECECE",
"n	c #CACACA",
"o	c #CFCFCF",
"p	c #C2C2C2",
".+@@#$%&$.*=-;*%@=#>@,')!$=*~+{%]%*^$-'/%='(__,:>]&@+<_-$&]@[*]$=%$>_)--..-*[e>:<^&4|5!:a@&55$&0:b<-_=2&1[*[@13=;#771_')6)<=>&<&",
"_>]]<^(=^<][<]&}[[@@&!--|,.[123!{$>{*&_45<!_(,=}=[@~1>-$]%%]@#@&_!-]%>%=%_=.~%<0,$'^+-5:6=$((_=>',&_<<~[]].>-=]>~<]]]!{^780,_:%0",
"46^_#&$&[:'#><-3^~%3=*&].>$'-[77.~}#!]]_:<<$<_,'<[*83&$<]]]]%^%&<!>^*%@=71~<^*=4]$<#%#{(|:,'_4:''$<4_0-^<]=_'$!.=:!>..~]a{}7^4=(",
"|>)#>.!=._:]&#=..^@9{3%.~..[]&{7_$=]$,!~40a:^[<50.[7~&<!<!.%@%&<!!!]@]%%+;@>@=8[,1=$3}=a.@_:_'&]].!<&:'^_%=_>>>^$-%=%.%:+.!'<[>)",
"a5(4^0]>=]>%>#^=]&#@}*^<.&{7+.#;3}{>$>'a&&-_>!<!5]^;.>!%!&]^^.>$'_!]%%^~&#]=#_@#>_<]>]^e<%>!%%]$]<_..!$=4$',<<-&$<%$&&#=-!{.'-()",
"(55$,@(#.]$]4(>]@>@<~.^<_=[^&#27}_:}7$,3'<$$!&.[!{^}'$=#^@^#^.!!$$@^@@.*9.~<@!0@:~<)>@._)_:<@]&:',4===$&4,(,$<__<&^>.&^%(>4!=<^0",
"-)<4.!$#.=4!0)'$><&&%]@%(>^@%129%!$.@$'^%%&&]&:4.1[2:<>.@%#*[]&=%!#%.%>@+=+-^^-85=%>-[+)%=54':]+,@&#[#>3<_-<$<>$=][]*==><&4%#>.b",
"0:|$!'!=]]0<_!&06-$[&*%{@&.^#{1+2*':#{@@.]!>]%@*${{7$>-_$>@++^=&%-!->^]+=1}^{--%]<)4-:>]>$(&>|6!08#^*%,7%<!=-$=<%.]![]%]%'$>=%-(",
"45-$=#]@^-65_-:5&-'&'%#@#],:%]=17}%$.[@&%.=]%]]@.~1[%$0a'%[]=^*^%@&^=-.,[^#1{>-#=^a_'&=<_45='4%_<>^~#%#[0<&.-5_->]^.<<]*#..'%&!6",
"40_-!@&.*=_'_'''>$_&(!=={9&0<@=>9}~%!-<^.^#%.]@@^{#=!<<=&=&=#~^$!~$-@>>%!+{!.~*=^*''6:'-((:%.>%'<>@{^]^#4-->$,$_<=%]>_'_%%[>&44|",
"'(-$=#%^+#=>_,'$&=&^$]%^}3]$>_(<]{871<,!>^*%=%^@%[#%]&=#$>=%^^%.9#[1&&{<>[*]%[^%(->$0'(<>&->=.^&@%[~#@^@$>_>&>.<->.@%=!>&&#%%'',",
"-(''!#^{~[@=$:'$:-_=-.=%~*@%=45=>%+773!:-&]].]^[*~[@%!!#$$!]%]^~]#]]#=_'![1~^!>%>>{=('6:.#=$!=%%@.]]>$-:&&_>=&]!$>.^^@#*.<<.#.!<",
"<446:=.#{[^%=<-$,'5$<%&=.*#!&%&'=@]@87{<&<!@#%^~2}^><<&[+&:<@[[[<<__]#%*.}}@=]=>[.9%$&$>:]*%]]!.[%.=<<$(<>:-$_!-$>.@]&.#*=_>><'_",
".',0,&&%{#@@]!<<$<(<&#!=[]>&#~]'-]=<[;+=#]][{[*+11^&.]=.}#=&..%#+-&<(@7731@=%@..$'*[#^@$4${#=.=#1[^%]^^!<!'--'>-,_=#@=]*~#>>(_-.",
".__,$%.%[%.&>-->:$5'-&'>+!$^*%.@'!>$@+~#^{{^^+91]*#%{1%-%#*#=!%*^{@4:-_;+*%@#%.#><*{{&%a'([[!.%{#=><>%]$>!'$<-&<__>^[^*91{<$4=.^",
"-4,,>^.]%=>-(5,<_='<<.$%=#~%-={~]>44={97!19.&321@{@![}*><>=@*~*@]%7{'_$#,87@&[[=@=.]@&7@(a{8^@==#=<-$.._--4'$-!_^&<=].^+2~((5%>-",
"4('<$-=*1%&%.:5,!aa(>.&*11^[(!!^-$-_<.^[;1#[9+^^]=^^<&~9~%=^98+@[.@+*.][][;7+^%=1'_-&@]2=@${^-[]]&<$$>>><==$(5'>4_^]@>@[=}800'*6",
"_-$$-_>%!92@:_!&_<.'4<.{_!%*><:(&!<-->^+972393#%@&=]!&]>[[#^^{3}1{=%;}]&+@%#{1+@_.#,/']+13|+!1{{.=!-:,,:<>>$:(_!,'&-!-@**#>05,>/",
"->!-:_>=@+#-$[@:-_<45$$&-_.==-<,&!>>-'&*[77~[{*#^.]%.@^.!#~{[*{[7[@%.12%{..*}7}^@@>-:,.^[+]3+@+{]%.>:560(4,-_,,___>:$'.%*@:'5:-0",
"4$>'4'&%*^]=&!>!>60:-'5-=_&'&_]<<-<.&_$.*9+.=@+;.%@&_-=%=@^#{+%_=}{=@]@7<<]**[^&1[,>=$@&={;9;$^@##^.<'45)/5<=$,(<$&'<'<-<{==|,_(",
"/:$:5:=^3^%*@-_]$,&]&'5>_4>'='>(<_<^*%]#;1%=.]{7381%<$<![@=&@{^>',{7%!*[9388~{+~_+%-4'[&#}^}**=@*#%%]&-((5,&@]>$<$!,-,-,_[%[)050",
")(_:(:>.*#^^%!--!&^.=]'4'4--<_$,=>&[133}2[<>.>&~;79*+1^=..]%@^^^_$'.8#$^3~13~[@>'%]!::%[.+918[]##%=.%.<,-:,_&].!$-<6((<_@%=1&560",
":(('-$$<-^3{&_->.!=>.^_0-_:<,<>!!&]#~~~{*=,,<<<.][%={3[@$$=^@=.#]((<>@+*}327;3*=#'_=@.=1=^7^7.^@%]==.&-::':,$.&_$>&4::!<^=]{{'$(",
"<46'&&$_#=&[9~=:&$@#.-:%5:(=(!-<'!@#^]!-=!(6_.@^&{#&]##+%_,->$&#0<&--=~72;7;~{9}]_&-&+%[}1%!3}.]%%].&<_'4-<$&@&4<.[<!$&$'>#&%_@:",
"$'@]>$4&<#!>$-^.^^{}8{%=.^{.$]]6><!%%!-_<<_=&:!%&!=^{{#%<{]!__[%0<4_(%!]7}82#%^}7@!->_49%+>]}~[=~@=]]>:4a,_06!@<4:,<]-'^$.]>]%.!",
"]>@..]$&,&!].>%&>-'''_!@^_'!$:___'$&=>$$<_5$&-$'&.@^##@%_]<-_-^.-05|-)-.=77~3>#[.%3%>%$:+&<~[.1*3*%].>$$,_<'04,0<-,_>$<]===^;7+.",
"@&.!.#!<$!-!>$]%&!!<',-&}>-]=->@.&=..!$-&!,-!<!'!%#%=.]=-!_-<&*^%$<4&4>@&,87-@_-7&>]{7{:=%@]<#71~#%.!$''06'<_,'_=$_-->=>.><#9}[.",
"]%%&=^]!.>_$$'!%.@##]!$$%.&$_$>$..]%]=<-&@!<--%%!@^=>=.!$<_'-&#{,]':/-5('(-[74.03]#{&!+7{[]{3!=7^@]].>:5$'<&<$-:>_>!-&%_%=&^$_-.",
"=*~[@@[^!->=&<'-<$$-$<>>:]%$_!>''->=..!$>]!!>>^@]@%==%%=-::45:![_#>$6<44!-_$,7<=<@=!.=.^38}33]-#^@]%^@!_!>>$<].:__&!'!@>[#^~56,@",
"$#{1[]*#.$>$<>:---':'-_:-]#[{#%^!=...=<'&=$]*#*]^@@@@@@%<,'(0('@<->6'd04[$'(:62^_%!=%,6(<17[!2}'@%=!=%%.---'$^^$$<>_($].%%%9,''.",
"_.%11%[]*&&(,>:-<=.&!<_($>>%+#.#*{#].=!-%=-%{#{#%.%#@&&@>4_':'4&==^-.4-$%#_:<_e;~.6-@>,e-,{+@{*{%^%!$>=.]&&!-$$:&=$,'_$&-!.}5_:<",
">.=}7~~.#.@-_&0)'>&<-<&&!&-<[*]%%%.>!]@].&_!>_@1&!.^='_._/(,''a:6@.&4&(0&+*=^<''b{}&fa%4'>#]@]_1^+3#>$!=<'<%&$!%=]-'>-4',=^8|4(>",
"-$$>^3}+]#<_^_&a|>.$-!.@=1{3;!*<->%^=_'$$]#@..!-{^&[!:%-_<<:,:4/-[3=0(_56&&%:]$_!:(28/$%&=__@'=_^}7+.<<>_=&>=!<%=@]_,_><<:{^_>'(",
"]$''((%7~^;7*7$73._&#&<%{},,7[@>]!>.@.></:'60$>,>%&$.$6<-:500(_<-_]~]())'5>>^($!/@'d-7{1.!$1%@{=3+~+~@>_,<$-!<-!*^%%^^@]#!~%4,'$",
"(5-@@_4,[;7^=.][%-a6&^^#~;>:1=@^*]!=^^]&]'4_:a/,$|]=5_((!-::(0645-&<<%>b,:=:]>%<<:4--f77777(75%[%1}{@@.<&.!<&==@]><=]..%9^31.<:,",
".&'54-<-.>;5>%<&.%!$=^{3[3;+@:*[#^^@%]%@@(5&=40>6,<:$-)$(:':'___-)0&@]!$6>_<,[&'5.>]b|e3~7{}71_+^[{*]!=#.=<':_!@]@^@%%[1}-055,_$",
"6>#@>'46=<'+]&b$@=.++!]7[#9+[![=%@^^@^@@]@&40(0c6=''&'-&@#=5a('('),@{^=$45a=-!5'a,%b&-(6+-![!^}97%<[{>>~...!__!]&@^].@^]0de(-::,",
">_$.&4)4=3'[.|-:--$.^.=[=@@>{.=%%.=]*+[.$>'60<=>-!'&$_*!'>>,(<=!:<&$>*[:,5<,]->::5c@$%&a>0&%==<4}9~%=]@^=][*].].#[[{33#<<-056/_=",
"@:)'!_44->7)!***=[]$=[%$.]^<#.]*@@%%#{[.{.<$'5,!,[_0^]'@!!=.<,5(.,(<!>&.5_.6<!^':,%e]{6&<0%j34!>$87@$@*.!$.^]%%>.<>@%-,-(>_<-64)",
"'-'(,-<-)-]=!}$_<-:<@#*}9>[^[~9%@{+#..%@>=!,0006<_!,>#-&^$_&$)0!),-_<[%554|_6-:=!55<>&<%$<4'(1:<<<]++]&%#!&@@~1@@<&[>d0~_!5-@%#<",
"._&:>,!,4(0@+#+&<!--$6c)~*#@%].]^*]%#]>*][!_6,(-$>4^>]^><,=a'$.-46-5.:[$:00('!=$:_<$-&.-!.&_:$]^=,-=22{&[.@^>>^[%=#^__=&!$'_>.%%",
"^&.<<:_0_d_&=]<[@+.0(&.=%>:,_'4aad^}}#~'=]+<%4_5-<4]_!]<$-@--$(e/0:6{]~$<4a/a:!>~#^^@@>6(_<<<>$'!{(&:{}9=!^~@]@%@#]-(4-%'::_>&&!",
"!>>]>].&]/)6_@$-8'!]b)!a9{%!$'0bf(a4f'!8[3]@):/5&-/,(!@&$__(6=$:4(!>1{7!-(5064'::a6<#1~%<>>>&.=>#4*>#<.;1]!.%[[%=*.-<:4!_''-!.%%",
"]]$%,&_-4&_:|b&<!!-!](a>,<=!-_<!500e9^</%#;3+&>(b'=%-_&%$!!.,@(a8'-@8;7(>'''45(4%,5_$-$---__-<>!&.,;3$&=}*]&&]#[]^.&.!'$>-''$=^*",
"44)-6!!]^4g$>/'<&1^_$_,!4<=$4600)6)$h',6))<=@.[]!&.<!===.@@^'#'4<=+1$e.9^<'()a(:!:_&>$]*('>&!<<>].[<_9!=<*83@!.*+.><$&%!>$','$!=",
"&>-$0:''/${6f>>_9.{~5a:|(_$->&<,_),)&$.(-(|<0*37+@],]#]=1~[!(@%@'!54$da^%-_-(66)(4$]>_!@<>&=!>.#&[@:=(}^>^*{1~^^^-<!-&@<&!!>$-_'",
"_:>$<-.&*da_>_|:!%.+7!|&<&!$<<(bd-a)a6b.:c,(.-@'b<7#*].{287^!&&$,&::(/0<&_<]!,aea|4-_'<>!$__'-&#@&=+-=,3*#!>~8+{-$&=!>><&===!<-_",
",5!'!(>'!=005(_i_~%]7[6,6-&>-$_(>/)5565d>66=$@]-_4-|#227797$->+1^=^[0'^a#><.&'4)<,(''-$'>$>]@].]#@@.%-=&]+*.]^~7-%=-$'-[$$$---<>",
"%^=-<><!((<5,-4/0(*@*$>5/<#&4:_55$$'-_,44,4,${;.',_,a5:/id!<(-(b<]>}*]$.@%]>.&$6b4>4)]$<>'4#$!_]$!.]%^.$:@9==#&+~&-!!_$]%%'5<>_&",
")_<<&&>&<{_%$<=:&'<%~!:5-_:55$$)(46050'@)c(#%87-&46(4(![.-&$-=:b5@<.>!>@.@;4%:./_:@,$'_$$,$<-(>#&===%^%!]&{39[=}~#]=!>>&@!$--$$'",
",>>',(,-&5^0$_:$<4/.~^<*f)<!'_><=-,--6:{77%-__.=404!%$:>]-!-(:45|=':-^[^:^%],=$-6g$)%(=@-(<5!(.]=&><&]]&=&~11}*@[+{]&.]&]_$!:'-)",
",$_4(:-&'=4^_.=^=.5..&(+9^&>$>]]@%@~+=>[<}.'>(>7[9+~8{_4#.#^.&$=,-(:'@[,=_&!](_<-)-0=4_:$,:5%=='!&&!&.%@!!#^]{*$][{#]%@@]<>&$$$4",
"($<->>--_'&${$~^0<a,_]>3+%!<,:<!5'$&#[].#[.</|@229.>~8382#^*}}@@@,,_a5&c3&$<=4))'-:_&^@>$!4->^-_<&]%.=%[{<!{]_>!&.^[@=.#]@=!%.>&",
"&]>'--'')|0,/.a_>.(a0-56c6>&(0'>,<'5>**][}+13[3;^'0<#].~@!!&[+[}^4_$/|^_*{4!6@5)-#<>$[^'$#->4<4=:-!=>->.~#]*]_><!!]#]<>]>%>-]&-.",
"<>:)0:<]),//_a&a,::a4:_0[!:('=@=^{]_&*{^=*6f44'#{&@}{,|/'<=$!]^7%_':$_1^.&>0$&@$e_-:>=3%>[.$:0)&_'_$-::_>*%@^==:<&].!><$-$--<$--",
"<=>(6a)4$_:04]<_::%::/'4!<<_'.{*4_:0,_:(<<$-0:*%@=[*>-&>&!$4-!:>*%:)#]@:%%:.4=<[5!#,&a@-=]@:.//(]<_$>-__(-([8>_<'.%<-&&'>'!.$<&'",
"_:_(6-=_:=^|6(#]#>,'<<'(|>{@e.{_4>4444!:!,']#^]>'$%_.!@>>$'(6a(>'.%>>]='@@$'&>'-#'--_..!]_.@&,a$0$>$!=.@!><.%@^<=[<|(#%(^=,6'.&(",
"(5-!_'-:5,:_4(:<><:('<_0::9+90'_:>5054<('5'&&!<_.=^<]$>,<$-'(5'!!@1}{..#,>><!$'>@^^4a&.>[_[@]=a<a-&><-'-<5>&@9[^=]>()6>9!.&'(:':",
"$4:>-'<]_$,#_<0-'!>:'&>4aa5}7@4~!=:((,$(__!.<_',:(--=-<$a(!^^.!!#&>^3+@&4-<>&>->%^{.')d:=.<^^_-,$.&:44_._&_]&'%-{.$!&:(!^%.=&!$'",
">':$<!]#$&$>5'66'!=!!==<<<c>{3,=]@=<$$>-=.^%$:,0,5,''aa0=!$':_!%&^#.=[~*&$,,$<'()[7#^~^~&(%!!^,=4<&!>_:-$'3[!@=}<{3[.>__[%.%^%=!",
",--$.@=-!!]'-6,4(,$=&<!@~=-f<!^_!.@]=.=.]@[]_':6',:<4bd5|6:$>>$'<%@>_!%^*=:06540&'<#[:58@1![]4]$:___<-:_5!-@<)%=^^$(@2~$<.^%-($%",
":>-,<=<,.'%&[0_>)/0-$,$^.<<40$11$$]==@.@^{1^>&.<<<$.'(4>5444'>==.',$>:4:*^%<6)'$5(<<]#%~:5>=.^@;#=,0:$&#{-@=!.,$<@^&<<%9]^^=_,_>",
"_>'4_--!-('<&:,_505,,(-.]]$#)<&3]$&<&@>.#}7~&%{[~*=%__5'$&..&$5e<$&._/6!<&[[<-=]<a,>>_0,@[-*@)$'!&&]#%=]<'0!=-]<^%=]#.>.33*]==!'",
"5_$&]-'%$.:$(^<'$><:4:<!%!.-='=@9==->@-$@87{<={~%.:!_.<!,:,('$_4-:6/6(4)|6&*@%%!&'<45%@$^.>~{--<$>!.^].#%>@^&<>%]@]]^@%[{27*&!&!",
">~[.!&.(>^.%!#a06>$>,%>-]@!$!-'.!*@>..&^~79@^@^_>(<-$>($060'!]].:((,0a5$(44-@{]_%.=e&:%@%#==[],('-+7+#92%[@1.9~*{#8%$^%[]}@71{%-",
"[').^-=+)],&&$@@,-:!'>(5>!':%*.$#<&%<=+182!'>>&-.%['(=>&$$',,_>&$4/a0406d5$$(4$@>&-_d']{.%.]~~=,=+77;1{+7*}37[^_]%:!^]%5@77.$;}]",
"}%(!#%%&!_*<!<)_&-,&<<4,|<=':>.%{<.1*[9;71':!>&!'<%>!%,b<%#%!>!>050a/654'56(:,,_[~}]%&+;+193189#[78[+{..]5$!{!#^0!,$=$[}7#9.&!!}",
",1;+].{@&$$_#'<0.>_>!&&.!.!_-&%@_<<%+%-.*=,:$_',.&=.&$-&a-].><$:'>!:66005a6,,5,>+[:d71_02972#^}7}8#>.]!>[^&#5(4&^&>:.%$;7*;^#:,>",
"'6/%778{[&-(._#&_<!$!=%..!>>'(-]:&<-=>4(_->-:',55_><5|'@4_<-_<<-0005$.!,!':>&&%+-7^{*[0~1.#1]<[;7*.]&&.!0-<#:=!])>1@!:,7788}7::|",
"aa5]&4]71@2.$&-&0:!'<$>'__]#'/,%^=&-0_.-::=<,-':,=!>!]^$<>&..&-:,'$={8;}3.'_!&&&.='.&#&]*>=9}*{}2..*]&.<46_6-:&((_|$~#9;;}^92$-d",
"'-,-'0'-,~*8]!*-'(-,<(',#$<@[[@>#>>-)5<-,d(,0(64=&/d4!@:::<%]'6a''__,,-&2;}1*#[{=$%!!'%^[{+;7}18^..%%].!<0:)-,=$&]'&=>19%;*<<9#b",
"455.^$_:'&#*_1.-#:,4!5->>_$<$.^>%^]%^'0&<k)--_)(,<'>'a_$>_$=!,4_<0b6'<&]='5>}7{'=~<[$]4%=;7+*@%+![]<@*^*060%:_,!>5!&={%^3^.@=;!%",
"$'<]5!.-:/6h71}[..]$_6!_a->a_.60_&!>!,):-{h|')(:_=<%:>:<>)>_%=,']_:<$_$>&{]]#.=!$_-!.]%^={1#%*~[i<$,@]'&55(a(>_<=-&@]]^.8]@^&{+,",
"#(|<'>$$$a!d|h%]77;*^''g!55a5<:<g<]->.-5<2|5/'a0'$$=$>''$_:4=&>/$4-.>!&_'*^.<4'<''-!&!&.^*^!<^}71)0=:_^=,,,/0_,$>-.*^@^.(!=&^1};",
"~%-!44,%,'>6)d-./!93*$!)6f5()-@[),:'-',_^77/-)>$&_:0->#*(.-4!!+,<_0|6-&]]~]..<!$'_$&&>>&.]%.!!=%{@:4<_5_-__)0'(<%.^*]&&!>[[]%^#+",
"7;$(:]'5$&-:(4bb)4$=}}}'64$(0%3#@.%38*]^[++6(<:']!%_!60db<&4:-9{6=4e_>:>*~.]##[=-::-><<>>>=[#!(6@77]!]>,<$<,:$'&^%%]>$&%#!]@.{9@",
"#2~!a54<='>=k6$6&<_(.*7988%_!+}#..$,-^*=>.7%'0/$#=.5'0!=a)>)6(=3@9#$%+*#!^%]>$@]<(65'--$.-_%{^<:[82;1=>*!>&$<>:><>>>>>]{._$=%1;{",
"3#<]!.$>''_:/:!<6-.'5097778;}~3};*]&>]#@><7;1)0'=]*%=,(5!)<)(,(.~@]_0]3==.>!--='=_05:-$>.',![#!:b+8]{7+<]=.!&!(--><>&><]>#&$^^.1",
"#^#1<&]#-@:f:0f|!--_$4%=.#377+;#1%17;]&.#>-717'|(,05a,'>&'>'<44(@{1*{}3%*]->&.]0=$:,,,'<_,,>@^>(!b&78121{@%=@%_>>&<<=<_!'@!-@]=}",
"*#@^:##,%..)0)-:-5)a0|.^^-'^{77c.]#%_=9;%=*7;7}#$>4<4>,_)$<<<b:a<2],33.}%%.%><]'_',5aba((55'.*{[d~]b!7779[@%*{=@_$,:===[@=&&!&.]",
"#~27#<>&*[,<00)05:6=$=^<>%]-:&~8+(={$>[[#{};771]:^&e5!'..,!e0_!@(3;22~+}.[%*'>'!>$04,5(a4b64_@[~9,-#<$1;;;8*=##'<$-$>>$_]>@@'$^]",
">@;7#-::,&-^'46544__&*0%'!&$_>=!1+=&>.*5+]-/4=87{)@.0:a)|4>_>5(/)'=91..<@[=$5-<>_$((0a,,')(,-@[{3!_]%$<@3~27{&%*=&>$--$<$$%#=.#%",
"@^{#-4-&4$:=_,,:4-6>.>(&==<:'<>-!.8[..(.54!_&4<>~2*@.-!<'=',:|&-'6$77+~!-&[.<0:$&=_:5),,0d)a0>&.*+!'%=(_-.1893{&==!<__-<$!]##^@]",
"=]{+%<-'><5-<$-5-(|^'6>'%.>__>!$,&-92%@:=_-6-|<!(47}%1!'),4,,0$_,a0#}39@<'^#~54,''64::<_6b6)5!.%]7[5-]-'<$(/4^}1==&!<$-_.@].^@.]",
"^%*3*.-4$$'<]<-/=e:.a,6$:<=.=!$'<,[>!7#_-,('@:=_b5632!]_$:<_,'/)$!4_[~3+1==_#<<5,_(:4a5)5a(04=%@.+{>:-<$//0_'4<1{@=!&&<_=]&&@@.%",
"3[#[%&<':<<_$4>_-(4!,5|$_!]%.&&=<&'<(-79@.),-'.$&&)b+}_#<)060^&3:=)e5,_<]~1$->=,,==&(b5((0'55&]][=[1!0,<_:5655-#;~]&=.!$_->=%@@%",
"]]~8+@!':--6()=&(>0^$/((=.].&&]#{50,>%%7*8'%,_-4'<6'-^7)>-(-0,|6=]_':5_-a.~~&.<-a'-!>$@#_:>''@[[}@#3@_'<(<'5-!,){^].].>_<'<&$&@.",
"@%*~#^{+0(,0<(!($|.34_(0->.%.>$$'{^!&:'@#7=}:><'--4,:<136$)]-:_'&:'%-0-'5aa393$<<$5'<$<,6):00=@@7;~%^[%<>-506ea]_<=@^=_4^$><6:]!",
"6'&@[*#]]5$|:b^4a(:!]0)a6$<@'>-.<!=.@#]<-4%*#;<>&4$,.4<;8,4$@[$$40_)<'$60>5$-]&>>!<''--'>!5'!%7]$~-$<&;_$4a0:'::5$'_[{$5_><,,-'0",
"'__-&^*[=)<-5>0:%(6{~a/=:'4=.{=>'=#@&!=._*=*96;$!$:>:^_<+2^#=-~!4&>%4$,$'>)<=[.$>$-$-__-,!e>[.7,4,$4(%^@=_(,()/)':<<:!%-__.=(5-$",
"_$>&@*{[{[)_0/$<4::)<)(|a'>^&.&%!&==.].!@'$=_7!#360]|>=&&172^@%=^#&{=^<&_&($_$=[.$_><,'={$%.%8@@b5644:@[<,5('_->-'<-0-%!=(a,>-((",
"'>.%^**#1@{,&(4(a.c^/^/64(:&]@!_]&<!%#%&_:#$,,=~-8+i_<$@--7777^[^<@@7}7;12328~;71]&^%$>*7778.<(__a$66-5[#]')6((a:>:5>&-<,<45>(a!",
"-!&<$&@[{+8-=>'5,-<,#$=,54_>]=!$=]%]&!]^#^4-!6./^!7+#('-$]=772737;7;7@+3^^]179{]2{*}3%=#d5>@-$|(<{b_-g>:=~{$($>,,<',&!_<-!$''_->",
"'>&><!]%^7![,=]-:_-5]_]$/,]&&_.^^]=..==.=][*)<a$4#+1#7&$$.@*122@(_4!(<,<.]&]9#{^{#[++%$'$(.&$}/<%#:5'444!;71$::4-:!&('=!^4'$6$%6",
":-<>&]]=!>*7!94'%|(>7e-*$4(4%]%<#>'<%@=<^$%$[>=5.|'2@}38%_[=%}!$!!5$(=46_.]<%>38#^.&.]$60!h06!><&8'($,>0|:%#=''<<'!=:_.!<:&!|e:<",
"$:6),&%]@$]8#_=-a>b*,=6<_(_5>'&>$_$!&!=@]@.[!>'5$'&$;[[77%0&^&@!$>@,-5-(6-&>1#9#9+.:$^%'(&54b=0$.~[0_^'_^__[~>:$$!'_^]_$=],(!)e.",
"!<-'45-@.@&##$<(4c$']f,>]_,>.>''<_'$=%]=#@]]%]>-:)($$%+#;7->:([]_-_#_*0_<$/&^[...3[^>(>:'>5:'(&!e#7.%'!]$$&##_4<_5_<^>!>=$,(4(<%",
"!<$$-::'#![!]3$-4__4}>04&&$44-.^%%]].&>$%%@@%]&>!&!-_-!%{}#a>((%<+_[-$%.|>/5<&-]=*%#@=^&4ad,_$%(#$=.]&&0-_:$@%'0._<$.-&.=!>$:(_&",
"]_6)5506=#.<&[+@/a$<-.[_5=%,|6(4>&]].&&&.%^^]&>>$!:'^@-$'%2^h>:<<=@.<.!&.&_=5_!:=.!#+*{@-44:e)[^!'-.:!].)<>'$&>'%>&$='>&'$&=>$!]",
"#!,('$_:'[!>__}8<+]',>$%a!{@<'(),_>.]%@@]%@@.>-'..>=+1^%'[##}c__<:@_&#$-@3'$!(e5>-_]{[^%}!)||'@.]+:55%'_&$66=~.(!_!>%--::-&..&&=",
"004,''4a$,@!'<$9,]&@{[-<..%@=:)/:'-!]@@@@%]]]=$:-$.<a/:$[>+&&7c_>@__>_{=.]@~0:>|_5($==>&'@^-5/5^,&/|)@!%_>>$_,$#$:<>#&>,]..==!-(",
"5:---<>>!'>%%$,<7278%&*[@_']^-05000,$&]%@]=.@%=<$$#['('5__%$^[7>_&!=_'!])72^'>_,:644:<_><]&_@](&@:4_|6:_@_6'=$'!!->$@=.<].&!..<,",
"'_'06:=^!%'#[-.:c=8{7&:&$4'~7}+345554_!].=&&==&!(4_][^-/6:c+;:47>'.#-@a!5]~35'=0!,:)5>_<!%[>>!-~{6/4>>&(-$>.&((]!>.$=<.&$<>&%#%>",
">==<-&^{.&#&!^=^&<~!}*7#~%]{3~{1@%=_44_!!&&>$-$$$&-$##&.':'=[!:k3{){=#<<-__}{%%##<$a5&-$[>.$$]_$=[*(=:--<<>]#=_$$>@<>,<>$&]]%^.<",
",@&&]$&*$@%#;[$%=##{~*{*+{[*[&>#@#<#,@'($!&!><$-6!>,>*%->g%_=}_00=+7~:'$-$519731=*..'|56&>.=#+=-_3=$%4&'-$5a:{[<^@&.*%!@..&<-$>&",
"+![$4&$#.<]3~.=@<:[{@*@%@]&&=$'!$<,.a_'@:&]$55_&_a$]_@}=.>($-7)&<(####4_-^9^~.}{;*8=:-/'/:@>(_!+%8[!*<.<%,_'!0!{[*@%[%!%...==.]%",
"%&<~==7&#4=9!:&!..@7[!3!##.&=!-$$<<~,5|:4$>$-<_0_(,!=&@1>!-<%#aa!],]{][_8;3>.<9~87}3[>_4::!<<!''_!<5&$-'->,&a(5.@{[@^@]%==..===.",
"{<{1@~%5{_.[:(>,*-1{&=($1}~^@]!!@>(<6''&:$<$=@<a$$:'!'-~;2$*a{=:&$!-!#%^7;$]'>%337*3+&%:)6-$!]!=:'<6-_,::,&6!4$)<@#]]#[@%]..=>>&",
"{%^.@[-0^%%>:$>4^7*27.%&*91^]&!.#^!$5<<_-=&'(-&&&4$!),^=79;5&'7-_,'5(!&^^*<#:_=97@^'_@>#>446,!>=$$],_405--6%$%,_:!%=&#*@^%%@%.]#",
"=8!]3%.,_@]((<$('=+*72_%.[[@.>&##}73..<0!!$:,_$--'$_4$^%!3*'=&@.:-d4-:#&**@:.=79+]-54-<=+>_:$!46)5-(')(4:'&0>']<'<.=&^[..=.^#@^~",
";88>]^/((]@_(_$_:[@177}^=]%@%&={311^.^1+]<'-<-4):&'4<$_%{[1(#:*7</:4']_@9{],##7~!%5__6>4:_^@&-4-d64_!4='5!'(/&>-<<.%.#*.%]^~{%]@",
"82!604$<<@1[-_=.!&@%{79@.=!]@!![7#..@%^=#]&<(/6_.4_!55-,@'#2&->8040-_0$.-]!}]&<]%_-66'4-%''_!>ab/5)_!a>|]44<]''<&<.^@{+%31}7}@!!",
"6;->!:6@#&=(:|:$_&>.}+][,',%@&*]#^^!._^>=(]*:--:=):&4,!'!&=@*%]*>'&-::%<-_#;,4$!']//_556)'(4>$('004:$-,0<<4,!(]--$%**#*^[.**;%&:",
"$<($:_-:$(:5$4':<!!%{*@[.:-=5$8>:@&;]*&-]!.&2<d,(',_%!-@<!!][@]#!$-__$'.@'>7;]5,$(6|)40644!=:_>:'(4(_<><.^+->&]-#@@*==.@+#~%#$><",
"_%.4._0%6/55-(,4(,-.[~}7=+^=]#{.:!.]^&]$&&$!5[$_>('>_'<$~{@]##[17ea65)<@.>_92*-^{(>(/:0054&@!&!06)6(-<$_=@7==[%@~#.~$<_=[[1@.,_$",
">)@,5a,__$&!!-<!>%.=^@[2,#<5&<5'&]%_%:]$~<%_{(>2@:$!05$,[~[%.!<!']8l.!$:$%>!.3[#^,<_64006_'>31$6660:<!<-''*]#@*;',(~=#.[>.**^<'(",
"15._!&.$':445,:'&~%![%.77[^%>=%=-{&{=]:,,'.^h$,d<@>_.$(=_^+{@>46(.7^]4,^$]&!&7~5)0a':|60,>_<3;%$6)a0,_':4'->#=}9=$_{%^>>-<!@^^>'",
">_()&<,=%!4,'%&>'%&>[#[77[^@%%<<5.<&=-40'!!47_g<$]].%>:$-#*]&!$-]-^7m-*,:<&#&+*&(<,@]a44<<%@.12{a6($!<,6,.$:]];&;[@@]!$(=!:$>#%]",
"%-_@,'@]..:-4!':=!.%&=[13{#.+3_'0--|=a:45!'(:@,<&>^[!!.$.#!00'--!(d}~0/4,!!^>>=;@!#;#'__-![[.+7+-<.#{[=$_!!,][~$%<%_%=1^=]->'@]^",
"%#e_>>:$=~#@0(6,$)>#-.;~7&*@!28-).($$<4__$.__,(=-#.>{{#7*1@_-!_6$$!<7n$<&*<!.>6.=b#8!<$>0]%.18*^@!':-&]@-a>_#~%%>_*(]-1%$@]#-.>=",
":,-!><-:&=.]@%&$,4)4&&.1~#!].#@a>@=(d=_.<><_<=<4><&%@]@{+7^-.<0->(>.[}987&[[+$==:#-''.'.$<%**+9~^&$&_'^%7$<%!7!@[6_*<:..@%6]<>=>",
"05=3+^!(,_!=&<-$:','>--%95%%#][./'d%='&..-:$$'_!!>!.%^[+++]<><:4=1%%&>{']_]=5:]4_::#&$5<'=]%[^@~2[_$<!*^<=^99^^05<,<'-5>-!_&=@'=",
"~]179[@<-''<<_'$&]]^^=!^[}@,^-7b_:5((&!%',:-'04-!!!&%*~{1@%]=%.,00^$-+*3=&|*_64^::>^'!>4:]=&[=<1~*>&^]^@7~7_><=-,0.^-:&,.^]:<#4*",
"7{}7+^*][<(:-',,$<&%^].@#[;!*@.*&:&''^''5>&:64:,<!!&@~{%#]%@@[#>]=!@<4!]~-{)!&_@$>=>(&]:,$-<]<-['^=&.<%1+<@6-@&.=,'d&c,#$!>,&917",
"@<#21[*.~%>>$,00'(:>.%%]>=7}5=0+@-a&=0=&![^'6:!&$!&.^{%$>]..^^=!=_4!-4&@1^0-0$>(!'-&]':<'5(--_-$:%$,::#7&^6%.>]!5,-.1-/('-$]^~7~",
"!>%~~[^]@{91@<''$,:$!]]>.^87c]./~<'40)==&.%]>''<$>=@[#&:>^@]#@!!&0<40>,>#3o,%0c:5,>!^-46!'$>-<>,-&''<&*~%*5&060!#],[e^&$@&>%&_1,",
"[+#.^^.%![91{*^.<:_$'__694]7[8%^>_;-4>_)_$!=>_,(>>.#*%>_.=%^^[^>:$6<$4.']_7p7-b44,.'-$!d>].!&=<'_-'&%#{!4,_:'$5&$^,_0!0'$5__<'#=",
"%3^>^^!=->>>#}1.@.@@><$548!~9,[=><@@>)@$&%<))<.<&!.[*]><=(>@&[~-]5<^=:0>^:#;%|{|*)-_46]'5%&:!!,'_''!>%3.~7@=7#7[{)^$!d.(0b.-%<:!"};
