/* XPM */
static char * tapete3_xpm[] = {
"45 45 421 2",
"  	c None",
". 	c #004233",
"+ 	c #013627",
"@ 	c #002319",
"# 	c #176051",
"$ 	c #00362E",
"% 	c #003B33",
"& 	c #004436",
"* 	c #003C30",
"= 	c #00362B",
"- 	c #004437",
"; 	c #095044",
"> 	c #003C2F",
", 	c #135F51",
"' 	c #064436",
") 	c #00372C",
"! 	c #034436",
"~ 	c #004236",
"{ 	c #00362C",
"] 	c #0A5644",
"^ 	c #064D44",
"/ 	c #045044",
"( 	c #00453B",
"_ 	c #02453B",
": 	c #064D3C",
"< 	c #003027",
"[ 	c #00443B",
"} 	c #03483C",
"| 	c #06483B",
"1 	c #074E42",
"2 	c #044C40",
"3 	c #003B2F",
"4 	c #064A3C",
"5 	c #013B2F",
"6 	c #00483B",
"7 	c #023627",
"8 	c #156051",
"9 	c #00362A",
"0 	c #024236",
"a 	c #001F17",
"b 	c #023B2F",
"c 	c #095445",
"d 	c #07473B",
"e 	c #095245",
"f 	c #003B2E",
"g 	c #063B2F",
"h 	c #002E26",
"i 	c #00402F",
"j 	c #044E44",
"k 	c #034236",
"l 	c #024436",
"m 	c #0C5447",
"n 	c #0C584A",
"o 	c #065042",
"p 	c #003E33",
"q 	c #003B30",
"r 	c #044033",
"s 	c #003627",
"t 	c #003C33",
"u 	c #02483B",
"v 	c #00241B",
"w 	c #09574A",
"x 	c #004033",
"y 	c #023B2E",
"z 	c #095745",
"A 	c #04443B",
"B 	c #003327",
"C 	c #075144",
"D 	c #0C584D",
"E 	c #024A3C",
"F 	c #00332A",
"G 	c #074D40",
"H 	c #00372E",
"I 	c #01473B",
"J 	c #00473B",
"K 	c #0E574C",
"L 	c #002E23",
"M 	c #03453B",
"N 	c #024C3E",
"O 	c #035042",
"P 	c #003B2C",
"Q 	c #024D42",
"R 	c #01453B",
"S 	c #09453B",
"T 	c #044D3E",
"U 	c #024C40",
"V 	c #065144",
"W 	c #0C584E",
"X 	c #044D3C",
"Y 	c #095145",
"Z 	c #074F42",
"` 	c #023B33",
" .	c #024A3B",
"..	c #002C20",
"+.	c #04453B",
"@.	c #014A3B",
"#.	c #044F44",
"$.	c #0C574A",
"%.	c #044D40",
"&.	c #003026",
"*.	c #014437",
"=.	c #095444",
"-.	c #075044",
";.	c #004537",
">.	c #065044",
",.	c #094D42",
"'.	c #064F40",
").	c #075648",
"!.	c #013C33",
"~.	c #023C2F",
"{.	c #0E5E51",
"].	c #04483C",
"^.	c #095144",
"/.	c #09584A",
"(.	c #014C3C",
"_.	c #075247",
":.	c #044A3B",
"<.	c #044E42",
"[.	c #06473B",
"}.	c #002317",
"|.	c #034A3B",
"1.	c #06453B",
"2.	c #03473B",
"3.	c #002F23",
"4.	c #02443B",
"5.	c #0A5C4D",
"6.	c #024437",
"7.	c #0A574A",
"8.	c #045042",
"9.	c #024537",
"0.	c #095747",
"a.	c #023E33",
"b.	c #004433",
"c.	c #034D40",
"d.	c #02362A",
"e.	c #033B2E",
"f.	c #004036",
"g.	c #04473B",
"h.	c #023C30",
"i.	c #024033",
"j.	c #00271F",
"k.	c #0A5245",
"l.	c #023E36",
"m.	c #044C3E",
"n.	c #034033",
"o.	c #063C2F",
"p.	c #002419",
"q.	c #003C36",
"r.	c #024D40",
"s.	c #13584A",
"t.	c #023E2F",
"u.	c #044A40",
"v.	c #024233",
"w.	c #014233",
"x.	c #00241D",
"y.	c #176757",
"z.	c #064237",
"A.	c #00372B",
"B.	c #063C30",
"C.	c #002017",
"D.	c #002B1F",
"E.	c #00261D",
"F.	c #003E2F",
"G.	c #023C33",
"H.	c #024036",
"I.	c #116052",
"J.	c #023327",
"K.	c #002F26",
"L.	c #014236",
"M.	c #064F44",
"N.	c #045144",
"O.	c #00271D",
"P.	c #095248",
"Q.	c #1B6F60",
"R.	c #072E23",
"S.	c #0E4D3C",
"T.	c #034C3B",
"U.	c #074C42",
"V.	c #002417",
"W.	c #014436",
"X.	c #034D42",
"Y.	c #0A5648",
"Z.	c #095247",
"`.	c #0A594A",
" +	c #064036",
".+	c #00231B",
"++	c #065445",
"@+	c #064D42",
"#+	c #044A3C",
"$+	c #094D3C",
"%+	c #002A1F",
"&+	c #0C5C4D",
"*+	c #04483B",
"=+	c #03362B",
"-+	c #02372E",
";+	c #043C30",
">+	c #014033",
",+	c #095045",
"'+	c #024E3E",
")+	c #004C3B",
"!+	c #094F44",
"~+	c #136057",
"{+	c #0A4F44",
"]+	c #044A3E",
"^+	c #003024",
"/+	c #024837",
"(+	c #044C3C",
"_+	c #003326",
":+	c #095645",
"<+	c #094A3C",
"[+	c #075248",
"}+	c #0E6054",
"|+	c #0A4E42",
"1+	c #002F24",
"2+	c #09564A",
"3+	c #044F42",
"4+	c #034A40",
"5+	c #004A3B",
"6+	c #064E42",
"7+	c #002E24",
"8+	c #044D42",
"9+	c #074C3C",
"0+	c #003B2B",
"a+	c #02473B",
"b+	c #064A3E",
"c+	c #04372C",
"d+	c #0A5E4F",
"e+	c #034A3C",
"f+	c #013B2E",
"g+	c #002B23",
"h+	c #034437",
"i+	c #00261B",
"j+	c #0C5044",
"k+	c #043B2F",
"l+	c #0E594D",
"m+	c #0A584D",
"n+	c #0A5445",
"o+	c #0E5E50",
"p+	c #014A3C",
"q+	c #002C1F",
"r+	c #02483C",
"s+	c #065145",
"t+	c #0E6051",
"u+	c #04372E",
"v+	c #07514A",
"w+	c #004D3C",
"x+	c #064A3B",
"y+	c #03473E",
"z+	c #004536",
"A+	c #094A3B",
"B+	c #002E20",
"C+	c #023B2C",
"D+	c #002A20",
"E+	c #0A5144",
"F+	c #022E26",
"G+	c #014537",
"H+	c #024E42",
"I+	c #136051",
"J+	c #044537",
"K+	c #024D3E",
"L+	c #095448",
"M+	c #02372C",
"N+	c #0E5C50",
"O+	c #0E5747",
"P+	c #024C3B",
"Q+	c #075447",
"R+	c #135F52",
"S+	c #075245",
"T+	c #095647",
"U+	c #01443B",
"V+	c #01362A",
"W+	c #074A3E",
"X+	c #064D40",
"Y+	c #043B33",
"Z+	c #116051",
"`+	c #002B20",
" @	c #095447",
".@	c #136757",
"+@	c #004A3C",
"@@	c #0E5D4F",
"#@	c #0E5F4F",
"$@	c #014C3B",
"%@	c #0E584C",
"&@	c #024E40",
"*@	c #176C5E",
"=@	c #024C3C",
"-@	c #024A3E",
";@	c #065647",
">@	c #044C42",
",@	c #094A40",
"'@	c #0C594D",
")@	c #003C2E",
"!@	c #074A3C",
"~@	c #001F15",
"{@	c #065045",
"]@	c #034537",
"^@	c #003E36",
"/@	c #0A584A",
"(@	c #013C30",
"_@	c #0C584C",
":@	c #023B30",
"<@	c #044437",
"[@	c #034D3C",
"}@	c #002F27",
"|@	c #044F40",
"1@	c #0E584A",
"2@	c #09584C",
"3@	c #074D3C",
"4@	c #094F42",
"5@	c #0E5F51",
"6@	c #01483B",
"7@	c #0A5145",
"8@	c #044233",
"9@	c #033E33",
"0@	c #024433",
"a@	c #044436",
"b@	c #0E574A",
"c@	c #014737",
"d@	c #013E33",
"e@	c #0C5E4F",
"f@	c #034C3C",
"g@	c #02362B",
"h@	c #024F3E",
"i@	c #003E30",
"j@	c #033E36",
"k@	c #074C3E",
"l@	c #0A5745",
"m@	c #045444",
"n@	c #095244",
"o@	c #003324",
"p@	c #01473C",
"q@	c #0E5745",
"r@	c #074F44",
"s@	c #0A5645",
"t@	c #002019",
"u@	c #095748",
"v@	c #034E40",
"w@	c #094C40",
"x@	c #074D44",
"y@	c #0E584D",
"z@	c #003727",
"A@	c #074E40",
"B@	c #035144",
"C@	c #0E5E4E",
"D@	c #01362B",
"E@	c #0A5647",
"F@	c #074A3B",
"G@	c #004736",
"H@	c #024E44",
"I@	c #0E6454",
"J@	c #095648",
"K@	c #042F27",
"L@	c #034C40",
"M@	c #034D3E",
"N@	c #0E5C4F",
"O@	c #073B33",
"P@	c #033B33",
"Q@	c #074C40",
"R@	c #09483B",
"S@	c #004230",
"T@	c #135C50",
"U@	c #065245",
"V@	c #03483B",
"W@	c #0E594E",
"X@	c #116257",
"Y@	c #0A4D44",
"Z@	c #094D3E",
"`@	c #064D3B",
" #	c #0C5144",
".#	c #0E6050",
"+#	c #155F4F",
"@#	c #063C33",
"##	c #09574C",
"$#	c #065244",
"%#	c #176D5D",
"&#	c #064C40",
"*#	c #09544A",
"=#	c #0C5D51",
"-#	c #02332A",
";#	c #074A42",
">#	c #034C42",
",#	c #004D40",
"'#	c #044E40",
")#	c #044E3E",
"!#	c #0C5C4E",
"~#	c #0E6251",
"{#	c #025144",
"]#	c #01372B",
"^#	c #0C5445",
"/#	c #0E604F",
"(#	c #044236",
"_#	c #0C5244",
":#	c #0C564A",
"<#	c #065247",
"[#	c #094D40",
"}#	c #074D42",
"|#	c #045244",
"1#	c #013B30",
"2#	c #044D44",
"3#	c #15604F",
"4#	c #074E44",
"5#	c #01362C",
"6#	c #136257",
"7#	c #13604F",
"8#	c #156257",
"9#	c #135E50",
"0#	c #094437",
"a#	c #064E3C",
"b#	c #073C2E",
"c#	c #176052",
"d#	c #034036",
"e#	c #0C5248",
"f#	c #0E574D",
"g#	c #043C33",
"h#	c #064F42",
"i#	c #095042",
"j#	c #024D3C",
"k#	c #034F42",
"l#	c #0A5748",
"m#	c #075145",
"n#	c #0C574D",
". + @ # $ % & * = - ; > , ' ) ! ~ { ] ^ / ( _ ~ _ : < - [ } = = | 1 2 ! * 3 4 5 6 7 @ 8 9 ",
"0 a b c d e & f & & ( * g h i j k l m n f o 3 p p ) < & q ; f r s t u v 3 * % w x a y z A ",
"_ B C D o E F G H I J p . l K | L ; M N 3 O = P ( x - Q R N s B t l S 3 T [ U V u B C W 4 ",
"X 3 Y Z x M `  .= 0 % 3 f ; ( ..+.@.#.[ & - B f - & $.l ~ %.&.9 *.=.B N I -.3 ;./ f e >.f ",
"- f f l _ t ,.= t 3 . ~ - ~ p = '.l t > s 3 L s - ).!.~.;.{.3 u V t M ].^.P 3 /.u P f *.x ",
"(.3 . I _.>  .H o 3 s :.& f <.[.}.= |.3 L 1._ & > f f 2.6 N 3.4.5.6.^. .7.* f @.u f ~ _ 8.",
"9.= * 0.a.= H f f q 3 . L b.c.d.s V e.f.g.h.i.3 ].>.- H ~ f j.k.: ..l.4.s B 9.m._ s t w n.",
"= % 9.o.p.P . f H & B . q.Q r.s s.{ t.u.t v.w.M / ! x.9 x p y.z.f . ~ f t & +.3 A.q 6.B.C.",
"D.= & E.F. .G.!.-.- & H.x Y I.s J.K.0.~ . L._ M.N.O.B & P.Q.R.S.K.f f.T.M = 9.U.V.A.W.O.> ",
"= X.- f & p Y._ Z.J 3 p ;.`. +.+> ++@+P #+L.I.$+%+L ) J &+*+L =+-+ .H R ;+>+,+& j.'+- f & ",
"3 )+4._ 6.X !+#+;.J 3 = 9.;.6.s / ~+* {+f E ]+f ^+/+_ N.4 h B (+( _ p - 3 *+f 6._+E 4.9.#+",
"H :+l ;._ <+E [+~ ~ &.3 7.& |.E }+7.P ^.A.e % |+1+2+[ >.3+;.2+4+& 5+m.& 5+% 6+& B :+6.l 6.",
"~ ( 7+u 8+~.V J ) A.7+9+l { * 0+a+1+i.& 9 0 4.:.A.b+B c+K.4.:.L & -.f 3  .f = f f *.7+u E ",
"w :+$ d+e+f ( H B f+- t * - C s f g+l f 2. .#+h+i+= 0 p & j+K.k+l+- K.u t = N.E m+n+H o+p+",
"4 q+l r+P x 8+> A.0 ) u X.%.~ 1.^./ s+w  .9 G.p f ~ t+b u+S T v+w+B &.x x 6.x+j.u.D.l y+F.",
"z+q f  .0 e+3 v.b . . t |.A+7+' C.B+l ) _+C+D+p u l E+j.f M B 3 - F+*+& G+p a.f.z+q f @.p+",
"Q H+++I+t * & $.A.f ~ [ J+.+= b B u ;.B+t H e+K+L+! M+0 ;.N+l $ . O+3 P+{ V M f X.H+Q+R+& ",
"S+T+! & f B f U+l.f K+f.:.3 & V+P ~ W+f r.l f j.X+7+f t %.; O.- L+#+l q+Y+Z+`+=  @0.l & . ",
".@+@b+_ B s $.@@& l V #@9 p ~ x & C %.( ^ ^.$@%@V p t 3 - x L J+&@& ~ _+; : O.(+*@p+]+a+9 ",
"9 p f.= f+g.=@J ~ -@- 3 K.x ( {.0 ;.( N.;@_ >@Q c.* B p 6 [ & 4.~ @+].% T.0 ,@'@h.p f.= s ",
"f )@L E.L y 6.3 A.B A.s A.f ~ !@~@F.{@(+P p p > * D.9 N.r.]@6 ^@t T f i 7+e 6.B+f )@L x.q+",
"~ ~ t /@/@(@f 3 * f f f s 6._@* 1+~ p+6.f P+& 9 %+:@& @.+.<@B B . t q.f ) [@H h+& & t /@/.",
"f K+N.7.) f 3 - ;.0 = & E w >.B+f t ( 2+3 $@H }@& 5+^@~ |@-+^ 1@x t >.+@$@. ( 2.3 N N.2@x ",
"f k.~ f.f 3@H N.j V G.2.c f . s 9 & ( q t 5 f+5 ,.= f _ *+f 4@B B f 5@N.6@~ #.b+> 7@f.f.f ",
"R 3 l ;.f 6@^@7@8@B+<@f f 9@W.j.l ^@t J w c M+0@B ~ x 3 W+a@H.f 2 6 b@& { f.w+>.0 f W.- & ",
"* - & ~ f f f c@g+4@& 3 > |@3 ;.I+d@e@}+5.(+K.L.t 3+x f@K+^ L b.3 a@s f g@h@- ( A.*.~ ~ x ",
"3 N.( W.}@!@4 - ~ ~ i@. - m.u S+| . . c & = f j@*.k@f B & 3 L l@q ; q > f.5+- { 3 V 5+& B ",
"f 3 f 9 g.3 H m@= n@ .3 { ~ p 7+9 > f ` L s t *+o@B f t ( - ;.3 6.K+;.O p@_ y B L.3 f 9 W.",
"P h.s x ( B q@W.. ` 1+~.r@R - C >.- - 7.s@B -.& t@- u@ .X+~ C 6 V t v@3 f k h . f b B x J ",
"x t ~ . f *.! B |.H.:.( p ~ 3  .w@& & ( 3 x@A+B+f J y@A.6.( f.*+H :.3 <@z@..#+~ ( p & . % ",
". b@3 & t s <@A@B %+s p J 4.* =@y . 3 3.P  .~ 3 f H+B@A ~ C@s > H ~ B D@D+& H _ - b@q - ~ ",
"E@F@B G@q r+2@. & 5+H@I@k.. ( J@K@s < >+s+L@3 f M@N@Y ` P O@P@K+_ Q@f B i@f 3 5+D R@s ;.t ",
"`.K.! S@L.$.3 t f t ( 0+j.> _ e B ! T@e+U@Y i@W.B & 3 3 ) = V@T & 7 D.@.f.~ W@X@t+h 0@p q.",
"y 7+r f Y@B 6.- l Z@s &.T+f.& - f `@g+ #V@= p f L a+I = t c.x l [ a & q t .#+#! r 7+@#3 ##",
"H >.t & ) F@M $#9 f p *+S 3.[ f.9 `+G.%#f f <.$ x 6@C 3 t ;.% ~ 8+z@3 & @@! y i.3 N.t & x ",
";.&#~ f a+T ! < 3 e 3.@+! f E - x *#=#w.s B x+s |.u@F@j.= [ s +.u J.f ;.& G+-#o |@;#& f >#",
",#@.S@B m+V & 5+n > s X -#s '#H w *.B 5 A.x )#H !+B `+r f ~ #+5@)@x.G !#~#> X+!#{#E . B '@",
"& ^+t@q@/ & % r.b O.]#V@t ^#t 6 - f &.& = = 3 f 0 9 b.H 8.S+/#(#j._#:#G.f `+P+~ w.o@t@q@/ ",
"s g@9 s B D.7+> < * @+t a+( u <#u x = f [#{ ;.~ }#* 3 A |#1#H f 3 J+9 a+= = & 2#0+g@= B + ",
"= 3#j.l@_ 4#;.- f E ( f.& n 4 ~.L f l - x+= t u 3 u H 6 u@& 9.x+5#f ~ l u = C 6#= 7#j.z ( ",
". ;+~@8#3 p I 3 = - Z.~ 9#0#K.y 3 B =.^ 8+- 5+% I a#B W.~ - A.V+[.c >.x+t 3 '#D@_ b#~@c#H ",
"0 a 3 n+| ++& f ~ ~ ( F.k+h * 8+d#0 e#f#3 -.% ^@f.A.< & * ; f g#s * V@v 3 > % 7.x a y c +.",
"_ B s+_@h#e+B 1 A.6 J t w.! K *+L i#_ j#3 k#= f ( x - Q ( c.s B 5 l S 3 T ( 4+N.u B C W #+",
"X 3 Y o p 6.(@ .= 0 q f f ^.( ..J+5+#.- b.;.B f - & l#l ~ 8+K.F *.=.B 2 I -.3 R N.f Y M.f ",
"( H f _ - q Q@9 t ) x ~ [ - t <  .e+6.f.) & B s J m#3 9 & n#A.2.>.f l #+^.A.f 2+-@A.f _ q "};
