/* XPM */
static char * tapete2_xpm[] = {
"45 45 155 2",
"  	c None",
". 	c #2C796E",
"+ 	c #2F6F60",
"@ 	c #285C52",
"# 	c #4E9890",
"$ 	c #2C6F67",
"% 	c #2C776E",
"& 	c #2F7E6E",
"* 	c #286F60",
"= 	c #2C8175",
"- 	c #3A8B7C",
"; 	c #287767",
"> 	c #479889",
", 	c #377E6E",
"' 	c #2C7267",
") 	c #33816E",
"! 	c #28796E",
"~ 	c #408F83",
"{ 	c #37887C",
"] 	c #378B7C",
"^ 	c #2F8175",
"/ 	c #338175",
"( 	c #287E6E",
"_ 	c #286D60",
": 	c #2F7E75",
"< 	c #338575",
"[ 	c #3A8575",
"} 	c #3A887C",
"| 	c #337E6E",
"1 	c #2F796E",
"2 	c #2C7767",
"3 	c #37857C",
"4 	c #2F7767",
"5 	c #2F8575",
"6 	c #336F60",
"7 	c #4A9D89",
"8 	c #2C6F60",
"9 	c #28574D",
"0 	c #337767",
"a 	c #3C8F7C",
"b 	c #3A8F7C",
"c 	c #2C7E6E",
"d 	c #3A7267",
"e 	c #2F6860",
"f 	c #2C7967",
"g 	c #409289",
"h 	c #286859",
"i 	c #2F816E",
"j 	c #3C887C",
"k 	c #33796E",
"l 	c #2F6D60",
"m 	c #2C5C52",
"n 	c #28776E",
"o 	c #3C9283",
"p 	c #285752",
"q 	c #3C8F83",
"r 	c #377E75",
"s 	c #378F83",
"t 	c #338875",
"u 	c #2C6D60",
"v 	c #337E75",
"w 	c #449289",
"x 	c #378175",
"y 	c #286659",
"z 	c #3C8B7C",
"A 	c #33887C",
"B 	c #287267",
"C 	c #2C816E",
"D 	c #2C7E75",
"E 	c #2C7260",
"F 	c #2F776E",
"G 	c #3A8175",
"H 	c #2F7267",
"I 	c #378875",
"J 	c #33857C",
"K 	c #338B7C",
"L 	c #287E75",
"M 	c #409283",
"N 	c #286860",
"O 	c #286F67",
"P 	c #2F7967",
"Q 	c #3A8F83",
"R 	c #449889",
"S 	c #2F5C4D",
"T 	c #378575",
"U 	c #2F857C",
"V 	c #409689",
"W 	c #3C9289",
"X 	c #33817C",
"Y 	c #2C6659",
"Z 	c #337267",
"` 	c #286259",
" .	c #37796E",
"..	c #285C4D",
"+.	c #479683",
"@.	c #2F6F67",
"#.	c #337967",
"$.	c #2C5F52",
"%.	c #287967",
"&.	c #4EA090",
"*.	c #2C5C4D",
"=.	c #479890",
"-.	c #336D60",
";.	c #2C6860",
">.	c #3A8B83",
",.	c #378B83",
"'.	c #2C6252",
").	c #51A79F",
"!.	c #3A6859",
"~.	c #44887C",
"{.	c #285F52",
"].	c #479D90",
"^.	c #3A8875",
"/.	c #2F6259",
"(.	c #336F67",
"_.	c #37776E",
":.	c #2F8875",
"<.	c #4A9D90",
"[.	c #408B7C",
"}.	c #2C6859",
"|.	c #3C857C",
"1.	c #449890",
"2.	c #3C8B83",
"3.	c #3A857C",
"4.	c #377267",
"5.	c #3C9683",
"6.	c #449689",
"7.	c #3A9283",
"8.	c #33776E",
"9.	c #449D89",
"0.	c #3A7E75",
"a.	c #2C6259",
"b.	c #2F6659",
"c.	c #37816E",
"d.	c #449283",
"e.	c #286252",
"f.	c #479D89",
"g.	c #2C8575",
"h.	c #4EA398",
"i.	c #3C9689",
"j.	c #378F7C",
"k.	c #409889",
"l.	c #2C6D59",
"m.	c #2F887C",
"n.	c #2C574D",
"o.	c #376860",
"p.	c #3A7767",
"q.	c #4A9889",
"r.	c #2F7260",
"s.	c #408F7C",
"t.	c #2C5F59",
"u.	c #377767",
"v.	c #4E9D90",
"w.	c #28554D",
"x.	c #2C554D",
". + @ # $ % & % * = - ; > , ' ) ! $ ~ { ] ^ / ( / { _ : ^ < $ + [ } { | 1 2 3 4 5 6 @ 7 8 ",
"| 9 0 a [ b : ; c . ^ . d e f { , | ~ g ' ] ' % 1 ' h i ; j 2 k l . / m 2 n n o 1 p 0 q r ",
"/ _ s g ] t u { ' ^ = . 1 v w x y z x A 2 ] * B C . D A ^ < E u F & G H I ^ J ] / _ - g 3 ",
"{ ' z } 1 v F < $ k % B B z : y x 5 K L ( = _ ; D : M k & { N O & q 8 A 5 - 2 : K ' q ] 4 ",
"^ H 2 | / P j * . 2 c c D ( 1 8 { k 1 % _ 2 y u C Q 1 F = R 2 < ] % / x - B 2 o < ' 2 & . ",
"5 ' 1 ^ Q % 5 $ - 2 _ < c B { G S O T 2 h G / & % B ' / 5 U h v V | z < W f H 5 ^ 2 1 X ] ",
"/ O 2 q 1 * ' B ' % ' 1 Y ( A Z 8 ] Z 1 x k k ; x - : O 1 B ` q { y k v u u / { & O ; q k ",
"* F i  ...' 1 ' ' & _ . ! A A 8 +.@.#.J . k & / K ) $.8 %.1 &. .H c 1 ' 1 i x 2 ' 4 /  .*.",
"Y $ & $.%.< F k - = C k ! - =._ -.;.o . %.1 v >.,.'.u C Q ).!.~.e ; . < / u / 3 @ 8 & {.2 ",
"8 A : ; ( ! M ^ Q ^ ; F & V  .@ ; s I B 3 1 ].^./.y B = V x Y 6 (.< ' ^ _.k } & '.A : ' L ",
"2 :.: / | t j T = ^ 2 $ i = | $ ] <.f [.2 < 3 2 }.^ / ] T e 8 t D ^ . ( n T 2 : _ < : ) T ",
"' Q | : / |.< >.. . _ 4 o C < < 1.W ' 2.B >.2 j ;.o D { ] ^ Q 3 i ^ J c 5 F ^.c _ Q ) / : ",
"c ^ }.5 A #.>.^ B * N 3.k $ % B ) N P . E k v T * 3.8 4.h v < Y i - 2 2 < ' + ' 2 : y < < ",
"q q $ V T H = B u H & . . : b * 2 ` | F / U < ) $.* 1 F c [.;._.w : N / F u ] < 5.~ H 6.U ",
"T Y | ^ B 1 A . ' k O / A { 1 x - ,.] 7.< @.8.. 4 1 9.F Z 0.t >.:.u u . . v { {.3 a.& / %.",
"= F B < k < 4 1 0 & c n < G }.0.@ y v $ _ Z a.1 ^ : 2.$.' x _ 2 : b./ & ^ . 8.1 C 4 ' < J ",
"A A s ].1 % & ~ * H & ^ c.@ * 0 _ ^ i y 2 B < A q , Z & C 6.v O & d.; t 8 ] / ; A K s > D ",
"- o , 1 ' u ' ^ k ' t . 3 ; D l B 1 3.2 A | H '.{ h ' F { z e.& q 3 k Y Z f.Y u Q Q v c . ",
"].g.{ i _ * M 6.& k ] R u . c . C b { = { - 5 6.] % f n D . h / t = 1 _ >.{ {.{ h.5 3 < 8 ",
"$ . . ' Z x J = . A D ; l f = R k : C ] s / A J A P N f 5 : c v . } x % T k 3.M #.% . 8 8 ",
"' ; y {.y 4 / H O u O _ ' ' . 3.9 % ,.{ B . %.; % y $ ] A x g.. ; { ' %.h q : y 2 2 ;.m Y ",
". 1 ! o M #.' ' %.; ' 2 _ & V 2 h ( 5 & 2 5 & $ ` 0 ! ^ / | ;.u c ! . B @.t B v c c n 5.o ",
"; < s W $ 2 % : & 1 $ c J Q >.y H n = Q 4 :.' u c 5 1 c { H { d.. n ,.5 U . ^ / 2 A ] i.. ",
"' ~ . 1 ; } O j.,.b 0 T a 2 c 8 * ( = 2 1 8.Z 4 } O 2 / T 4 z u _ B 1.K < ( ] 3.2 2.. . ; ",
"^ H & C B < % z k h r ' ' _.& ` | . % = Q Q (.k 8 . ! B 3 | k ' I ^ d.. $ . :.] k H & & c ",
"f ^ c . 4 B 2 ^ Y j c 2 %.] H i =.F k.=.5.T h & ; K f A t { h c ' , $ 2 + A D ^ B ^ . D . ",
"B s ^ 1 ;.3.[ : & & ! 1 c { X b T . . q c O B k v 3.H u & % Y q % z n % . g.D * ' >.= & u ",
"; H 2 O x 4 ' s _ 2.< 2 O . . y 8 f 2 4 ;.* % x l._ B % ^ c = H | m.i K 5 / 0 l & 4 H * & ",
"; 0 * . = u M & & 8.N 0 - / = >.{ D D o q 8 >.D n.i o < } . Q g.- % A ' B k N . ; 0 _ . = ",
"! 1 . ( ' : , l / k < = % . 2 < j & c : 2 { [ Y B = w ' | = . x B < 4 v E y T 1 ^ . . ( n ",
"! M H c f _ v - u a.8 ! = v n < Z 1 4 h ' < c n 2 A K r 1 6.* 4 ' 1 _ + a.& B / ^ d.H & . ",
"~ [ _ i % U 5.. c :.A f.~ f = 7.o.8 _ 1 >.A ; B A V >.F ' p.8.A ^ } ' _ %.B n 5 W G * ^ ! ",
"5.e | f k M ' 1 ' ! ^ E ` f ^ q l  .+.J ,.2.f & u i 2 2 ' 8 < { & Z y 5 1 ! g ].9.Y | F 1 ",
"0 ;. .; j u / & : |.8 u q ! . i ' { Y [.T u ! ' h / ^ $ % { . | D 9 & B % R q.|  .e _.2 q ",
"' ] F & $ [ / b * ' P T 0.N : ! 8 Y k h.; ' { O . 5 - 2 % & % & A r.n c 6.| Z 1 2 ] % : . ",
"& 3 & B < { | N 4 z N { , ' ^ ^ 1 Q V 1 * _ [ _ < o [ ` 8 ^ _ / / -.' = i ^ -.} { 3.& ; A ",
"m.5 & e o s D ^ V 4 8 I l * { B W & _ F B f ] H j u y  .H c T R 2 S { V ].; { V K < 1 l V ",
"c N n.d.,.c 2 A Z {.@./ 1 ~ % ^ c ' _ 1 8 O 2 B : * c ' ] >.R v {.q ~ 8.' y :.c & _ n.s.K ",
"E @.* + l y h %._ P { % / i 5 s < . E B } O ^ . } ; 2 r j.H $ ; 4 x * < O O . { E @.@.l + ",
"8 q.t.q / } = D B X ^ . c g T 8.h H 1 = [ 8 2 / n < O 5 7.: ^ T @.' c k / 8 Q ].@.f.{.o ^ ",
". u.9 v.' . / ; * C Q ! > 0.}.Z ; O a { { : 5 % ^ ] N & c & ' 6 G Q ] T % ' { + /  .w.# ' ",
"| 9 4 a 3.b C 2 D . i . 0 b.% { k k [.g B ] 2 % 1 8 _ D ; 2.'  .+ % < $.4 n ; q 1 x.0 a / ",
"/ _ ,.M { 3 _ { $ 5 = F | | M x N z / A % A * B = . i A ^ { * u 4 k G 4 { = { ] < _ >.g T ",
"A H 2.] 1 | F < 8 1 2 B B - ^ y c.5 { c ( = _ 2 C c q | . { N u v Q u J 5 - ' ^ K H a - 2 ",
"= H ' / : 4 3.' F B . L = D 1 N 5 J v . ' : _ _ ^ Q H $ c g B < ] ' | T z B B q J $ ' / n "};
